<?xml version="1.0" encoding="utf-8"?>
<svg width="20px" height="20px" viewBox="0 0 20 20" fill="none" xmlns="http://www.w3.org/2000/svg">
  <path fill-rule="evenodd" clip-rule="evenodd" d="M 8 1.636 C 7.923 1.698 7.832 1.727 7.74 1.719 L 7.74 1.721 C 6.692 1.721 5.824 2.657 5.816 3.214 C 5.816 3.49 5.989 3.618 6.224 3.671 C 7.025 3.842 7.468 4.234 8.082 5.439 C 8.544 6.327 9.122 7.45 9.479 8.142 C 9.664 8.501 9.788 8.743 9.808 8.778 C 9.884 8.925 9.928 8.941 9.984 8.941 C 10.042 8.941 10.088 8.926 10.168 8.778 C 10.187 8.742 10.324 8.478 10.524 8.091 C 10.884 7.396 11.448 6.306 11.893 5.437 C 12.524 4.226 12.952 3.841 13.752 3.67 C 13.988 3.616 14.16 3.488 14.16 3.213 C 14.16 2.657 13.297 1.719 12.241 1.719 C 12.15 1.727 12.059 1.698 11.982 1.636 C 11.906 1.574 11.848 1.482 11.816 1.374 C 11.64 0.959 11.378 0.611 11.057 0.37 C 10.736 0.128 10.367 0 9.992 0 C 9.616 0 9.246 0.128 8.924 0.37 C 8.603 0.614 8.34 0.959 8.166 1.374 C 8.136 1.482 8.076 1.574 8 1.636 Z M 7.328 6.464 C 6.461 4.784 5.388 4.242 4.376 4.242 L 4.374 4.242 C 3.026 4.242 2.539 5.124 2.539 5.482 C 2.539 5.627 2.6 5.758 2.805 5.758 C 3.766 5.758 4.37 6.466 4.839 7.417 C 5.307 8.368 7.636 13.024 7.666 13.077 C 7.68 13.112 7.701 13.144 7.728 13.165 C 7.756 13.186 7.787 13.197 7.818 13.197 C 7.852 13.197 7.884 13.186 7.911 13.165 C 7.939 13.145 7.964 13.115 7.978 13.081 C 8.012 13.014 9.239 10.61 9.268 10.56 C 9.293 10.514 9.307 10.461 9.308 10.406 C 9.307 10.351 9.294 10.299 9.268 10.257 C 9.246 10.205 7.768 7.316 7.328 6.464 Z M 7.023 19.721 C 7.28 19.905 7.572 20 7.869 20 C 8.166 20.005 8.46 19.911 8.718 19.728 C 8.977 19.545 9.192 19.281 9.341 18.96 C 9.681 18.285 14.672 8.366 15.14 7.418 C 15.607 6.47 16.21 5.759 17.172 5.759 C 17.376 5.759 17.44 5.63 17.44 5.484 C 17.44 5.126 16.946 4.243 15.598 4.243 C 14.581 4.243 13.512 4.786 12.646 6.466 C 12.202 7.316 8.759 14.074 8.03 15.522 C 7.999 15.59 7.936 15.697 7.848 15.697 C 7.761 15.697 7.716 15.631 7.66 15.522 C 6.184 12.642 4.204 8.758 4.204 8.758 C 3.394 7.15 2.457 6.758 1.652 6.758 C 0.585 6.758 -0.002 7.449 -0.002 7.906 C -0.002 8.068 0.056 8.243 0.308 8.243 C 0.952 8.243 1.192 8.659 1.9 10.082 C 2.437 11.129 6.4 18.955 6.4 18.955 C 6.551 19.273 6.764 19.537 7.023 19.721 Z M 18.095 10.082 C 18.804 8.659 19.044 8.243 19.686 8.243 L 19.688 8.243 C 19.939 8.243 19.998 8.068 19.998 7.906 C 19.998 7.449 19.411 6.758 18.344 6.758 C 17.541 6.758 16.611 7.15 15.792 8.758 C 15.792 8.758 10.776 18.581 10.743 18.652 C 10.692 18.717 10.661 18.8 10.65 18.889 C 10.661 18.977 10.692 19.057 10.743 19.121 C 10.902 19.393 11.112 19.615 11.356 19.769 C 11.598 19.921 11.865 20 12.137 20 C 12.432 20.001 12.724 19.905 12.983 19.721 C 13.24 19.537 13.455 19.273 13.604 18.955 C 13.604 18.955 17.568 11.129 18.095 10.082 Z" fill="#D5C9BE"/>
</svg>